<?xml version="1.0" standalone="no"?>
<!DOCTYPE svg PUBLIC "-//W3C//DTD SVG 20010904//EN"
 "http://www.w3.org/TR/2001/REC-SVG-20010904/DTD/svg10.dtd">
<svg version="1.0" xmlns="http://www.w3.org/2000/svg"
 width="1200.000000pt" height="1200.000000pt" viewBox="0 0 1200.000000 1200.000000"
 preserveAspectRatio="xMidYMid meet">

<g transform="translate(0.000000,1200.000000) scale(0.100000,-0.100000)"
fill="#000000" stroke="none">
<path d="M6058 11365 c-2 -3 -90 -5 -194 -5 -104 -1 -234 -6 -289 -11 -55 -5
-127 -12 -160 -15 -53 -4 -101 -11 -315 -44 -371 -57 -858 -202 -1245 -370
-1343 -584 -2383 -1687 -2895 -3070 -366 -990 -429 -2069 -181 -3102 236 -984
752 -1894 1467 -2588 246 -238 560 -493 632 -513 28 -7 41 -16 38 -24 -12 -31
401 -287 709 -438 1330 -652 2835 -732 4227 -224 1700 621 2980 2074 3383
3845 220 965 173 1923 -142 2889 -366 1123 -1119 2108 -2118 2772 -431 287
-961 536 -1435 674 -122 36 -284 79 -320 85 -14 3 -32 7 -40 10 -48 17 -311
63 -505 88 -189 25 -606 52 -617 41z m192 -205 c1152 -63 2194 -473 3085
-1216 150 -125 452 -423 577 -569 571 -668 963 -1459 1142 -2313 178 -846 142
-1715 -105 -2538 -188 -630 -492 -1214 -899 -1729 -223 -284 -556 -619 -830
-836 -161 -128 -367 -272 -530 -370 -415 -252 -876 -449 -1344 -576 -93 -25
-176 -47 -185 -48 -9 -2 -16 -4 -16 -5 0 -2 -4 -3 -145 -29 -63 -12 -140 -27
-170 -33 -30 -6 -68 -12 -85 -13 -16 -2 -88 -10 -160 -19 -615 -75 -1305 -25
-1908 139 -71 19 -132 33 -137 30 -5 -3 -10 -1 -12 3 -1 5 -86 36 -188 71
-759 257 -1419 669 -1995 1246 -273 273 -450 488 -647 786 -520 784 -807 1665
-859 2636 -23 430 22 922 125 1369 186 811 547 1534 1092 2189 133 159 448
476 604 606 577 483 1215 823 1922 1024 551 157 1125 224 1668 195z"/>
<path d="M6060 10905 c-25 -8 -58 -26 -75 -40 -24 -21 -25 -23 -5 -11 56 34
116 47 206 48 75 0 103 -5 155 -26 53 -21 60 -22 41 -6 -56 46 -226 65 -322
35z"/>
<path d="M6200 10306 c0 -2 17 -16 38 -32 25 -19 32 -22 22 -9 -24 33 -60 58
-60 41z"/>
<path d="M4092 10291 c-6 -4 157 -86 369 -186 209 -99 386 -186 394 -195 9
-10 11 -20 5 -30 -29 -45 4 -39 189 36 40 16 43 19 24 27 -15 7 -40 3 -85 -11
-108 -35 -115 -34 -148 8 -23 30 -61 52 -187 110 -87 40 -225 104 -307 142
-191 89 -240 108 -254 99z"/>
<path d="M5708 10173 c18 -32 108 -100 177 -133 34 -16 95 -37 134 -45 93 -19
277 -19 359 0 35 8 68 13 73 10 12 -8 102 -135 98 -139 -2 -2 -53 4 -114 12
-78 11 -202 15 -430 16 -354 0 -491 -12 -796 -74 -986 -202 -1873 -799 -2437
-1642 -281 -421 -480 -899 -576 -1383 -63 -318 -80 -521 -73 -864 12 -583 126
-1067 377 -1596 394 -835 1127 -1532 1990 -1896 348 -146 740 -245 1123 -284
185 -19 589 -19 774 0 1163 118 2198 741 2850 1715 313 468 536 1058 607 1605
8 66 18 138 21 160 14 92 17 561 5 699 -98 1132 -651 2126 -1562 2808 -430
322 -987 571 -1518 678 -63 13 -117 25 -119 27 -2 2 13 19 35 38 l39 35 -40
-7 c-103 -20 -190 7 -215 67 -19 46 -54 54 -183 42 -229 -21 -397 19 -558 134
-39 29 -49 33 -41 17z m707 -469 c273 -31 482 -77 738 -160 617 -202 1182
-571 1611 -1054 590 -664 915 -1478 942 -2360 28 -907 -269 -1773 -850 -2478
-115 -140 -391 -413 -531 -524 -533 -424 -1125 -682 -1795 -782 -339 -51 -822
-45 -1155 14 -355 63 -719 181 -1019 332 -1065 533 -1808 1528 -2011 2689 -40
233 -49 343 -49 639 0 306 8 405 55 665 104 571 347 1120 702 1585 507 662
1233 1142 2036 1345 215 54 503 98 711 109 137 7 483 -4 615 -20z"/>
<path d="M5647 9604 c-485 -50 -955 -196 -1378 -428 -139 -77 -389 -244 -524
-352 -60 -49 -177 -154 -259 -234 -456 -447 -779 -983 -947 -1575 -104 -364
-142 -636 -142 -1015 0 -289 21 -501 74 -750 193 -901 708 -1681 1464 -2217
643 -456 1469 -695 2255 -653 183 10 189 11 363 35 537 76 1085 294 1537 611
795 557 1340 1411 1499 2350 42 252 46 304 46 629 -1 333 -6 400 -56 670 -130
706 -478 1365 -994 1880 -604 605 -1363 965 -2210 1050 -183 18 -549 18 -728
-1z m778 -90 c643 -73 1256 -326 1782 -735 132 -103 416 -379 526 -512 372
-449 627 -971 746 -1527 93 -439 102 -887 26 -1340 -172 -1026 -801 -1927
-1719 -2465 -188 -110 -552 -273 -622 -278 -24 -2 -29 4 -50 60 -35 93 -64
250 -64 347 0 46 10 147 21 223 14 90 22 190 23 288 1 134 -1 155 -21 200 -22
50 -28 102 -48 435 l-6 95 95 183 c61 118 110 200 138 230 59 63 97 120 147
220 30 61 45 81 54 74 12 -9 109 -73 766 -502 190 -124 361 -242 381 -262 49
-49 81 -61 130 -48 46 12 80 51 80 91 0 23 -4 29 -22 29 -12 0 -31 8 -42 18
-12 10 -40 24 -64 31 -42 12 -190 102 -203 123 -10 16 2 48 17 48 11 0 70 82
126 175 4 7 -8 9 -32 7 -32 -3 -51 5 -134 59 -75 49 -96 67 -96 85 0 13 8 28
18 33 11 6 41 44 68 85 27 42 52 76 57 76 4 0 58 -34 120 -75 61 -41 116 -75
122 -74 8 0 259 375 298 444 8 16 6 17 -27 11 -33 -6 -45 -2 -104 37 -282 185
-268 177 -316 177 -32 0 -46 -4 -46 -13 0 -8 53 -49 118 -92 64 -43 119 -82
120 -86 2 -5 10 -9 18 -9 27 0 12 -46 -39 -120 -47 -68 -56 -75 -89 -78 -30
-3 -52 7 -130 57 -51 34 -97 61 -103 61 -5 0 -23 -21 -39 -48 -49 -78 -65 -92
-110 -92 -41 -1 -41 -1 -116 -113 -84 -126 -94 -136 -132 -137 -51 0 -77 54
-38 81 11 8 53 73 95 144 l75 130 -35 3 c-27 3 -35 8 -35 23 0 11 7 22 15 25
14 6 99 128 112 159 4 12 -4 15 -33 15 -53 0 -224 111 -224 146 0 13 9 28 20
34 10 6 40 43 66 83 25 39 48 74 50 76 2 2 60 -33 128 -77 l125 -81 30 48 c17
26 31 50 31 52 0 3 -17 3 -38 1 -32 -3 -50 5 -122 52 -47 31 -110 68 -140 83
-30 16 -56 31 -58 36 -8 16 -68 6 -94 -16 -23 -19 -191 -261 -200 -289 -2 -6
-21 -13 -43 -17 -21 -3 -40 -11 -42 -16 -2 -6 51 -45 117 -89 66 -43 120 -82
120 -87 0 -5 7 -9 15 -9 27 0 16 -40 -31 -113 -26 -40 -52 -75 -58 -79 -30
-20 -75 -6 -164 52 -50 33 -95 60 -100 60 -4 0 -27 -30 -52 -67 -24 -38 -45
-70 -46 -72 -2 -2 -23 -6 -46 -8 -40 -4 -52 2 -166 76 -164 108 -156 104 -196
90 -29 -10 -44 -8 -129 20 -52 18 -101 39 -109 48 -11 15 -11 16 6 10 44 -17
114 -28 156 -25 62 4 130 51 205 140 64 76 67 78 199 114 72 19 60 34 -28 34
-58 0 -59 0 -41 20 21 23 112 70 135 70 9 0 24 -6 34 -13 40 -29 12 -160 -47
-224 l-20 -23 21 0 c19 0 22 -5 22 -42 0 -24 -9 -86 -20 -138 -10 -52 -18 -96
-16 -97 2 -2 25 28 50 67 39 59 48 81 52 128 5 66 17 108 50 174 31 60 30 102
-1 164 -22 43 -25 62 -25 159 0 66 -6 134 -15 168 -46 176 -158 280 -301 281
l-62 0 -5 53 c-10 94 -79 183 -176 226 -50 23 -167 29 -255 14 -32 -6 -46 -5
-42 2 11 17 -12 130 -36 180 -52 108 -190 201 -299 201 -65 0 -154 -28 -222
-70 -27 -17 -50 -30 -51 -30 -2 0 -20 27 -40 59 -48 78 -116 137 -180 157 -28
8 -90 18 -137 21 -77 5 -92 3 -133 -16 -81 -40 -202 -195 -232 -299 -9 -29
-19 -75 -23 -100 l-6 -47 -95 -1 c-68 -1 -113 -8 -160 -24 -60 -20 -160 -75
-160 -88 0 -3 7 -13 16 -23 15 -16 14 -19 -15 -33 -31 -17 -42 -41 -56 -133
-4 -25 -12 -43 -19 -43 -7 0 -31 -12 -52 -26 l-39 -27 -37 22 c-52 30 -72 27
-110 -20 l-34 -41 -65 36 c-36 20 -74 36 -85 36 -10 0 -48 -18 -84 -40 -84
-52 -193 -94 -299 -115 -113 -23 -315 -16 -416 14 -102 30 -118 28 -157 -20
-40 -50 -75 -69 -127 -69 -34 0 -48 7 -93 50 -56 53 -67 52 -48 -5 23 -70 116
-118 189 -97 34 11 86 55 123 104 12 16 19 15 98 -9 78 -25 99 -27 255 -27
156 0 177 2 258 27 94 29 186 72 254 118 23 16 45 29 49 29 4 0 40 -20 80 -45
39 -25 74 -45 77 -45 3 0 19 23 37 50 18 28 35 50 39 50 4 0 28 -13 54 -30 26
-16 51 -30 56 -30 4 0 19 16 33 36 35 48 41 33 41 -95 0 -84 -7 -137 -33 -251
-27 -122 -33 -165 -33 -275 -1 -116 2 -136 24 -190 14 -33 137 -235 275 -450
373 -581 366 -567 384 -713 10 -79 7 -134 -17 -272 -8 -47 -19 -112 -24 -145
-5 -33 -14 -73 -19 -90 -5 -16 -14 -49 -20 -72 -6 -24 -33 -82 -61 -130 -28
-48 -57 -112 -65 -142 -31 -114 -55 -775 -33 -895 6 -32 9 -59 7 -61 -2 -2
-55 10 -118 26 -1086 275 -1999 1081 -2413 2129 -393 995 -312 2128 218 3050
453 789 1171 1364 2040 1634 251 78 574 135 855 150 120 7 454 -5 585 -20z
m-542 -2426 c54 -24 96 -67 132 -139 49 -97 53 -203 9 -240 -28 -23 -109 -27
-314 -14 -203 13 -205 13 -228 40 -20 23 -22 34 -16 69 12 73 122 263 165 287
64 34 168 32 252 -3z m591 -133 c84 -42 132 -87 150 -142 21 -63 20 -158 -3
-224 -27 -78 -258 -607 -287 -656 -33 -58 -53 -61 -129 -24 -60 30 -183 131
-140 115 11 -4 55 -20 98 -35 42 -16 77 -25 77 -21 -1 4 -41 32 -91 62 -49 30
-104 69 -121 87 l-32 33 21 27 c11 16 46 48 78 73 80 62 100 104 100 206 0 71
-4 87 -31 140 -41 77 -47 111 -39 197 7 67 10 75 48 111 94 90 192 106 301 51z
m-999 -326 c213 -33 447 -43 531 -22 31 8 47 7 67 -3 63 -34 78 -197 23 -268
-105 -138 -350 -260 -485 -241 -108 15 -264 86 -393 178 -82 59 -99 56 -47 -9
43 -55 127 -124 244 -204 105 -71 130 -93 121 -108 -7 -12 -308 -110 -388
-126 -41 -8 -56 -15 -44 -19 32 -12 139 -7 231 12 50 10 92 16 95 14 3 -3 -16
-24 -41 -46 -52 -48 -145 -97 -189 -100 -17 -1 -30 -6 -30 -11 0 -5 40 -6 90
-4 l89 5 -38 -56 c-50 -73 -73 -120 -68 -134 7 -18 86 69 168 184 108 154 134
183 189 213 28 16 53 26 55 24 2 -2 -2 -28 -10 -58 -16 -58 -32 -189 -22 -180
3 3 26 57 51 120 50 125 82 170 122 170 40 0 135 -43 267 -121 193 -114 260
-195 326 -395 45 -135 80 -378 81 -553 0 -41 3 -72 6 -68 12 12 34 194 34 282
0 119 -17 296 -36 368 -21 81 -13 91 24 33 51 -80 90 -221 95 -343 1 -35 5
-63 9 -63 24 0 27 233 4 340 -8 36 -12 67 -11 68 5 6 116 -28 147 -44 32 -17
72 -75 105 -154 22 -54 23 -54 23 -20 0 19 -4 51 -10 69 -5 19 -8 36 -6 38 4
4 502 -319 520 -337 11 -11 -54 -132 -109 -202 -77 -98 -237 -217 -292 -218
-36 -1 31 -29 69 -30 l38 0 -20 -51 c-51 -136 -109 -174 -299 -194 -64 -6
-109 -15 -101 -19 8 -3 66 -19 128 -35 62 -15 114 -30 116 -32 3 -2 10 -100
17 -217 12 -212 12 -213 -10 -233 -41 -38 -17 -87 39 -76 24 5 32 2 42 -16 19
-33 15 -276 -7 -437 -12 -84 -19 -189 -19 -280 1 -151 14 -214 74 -356 l20
-45 -23 -9 c-34 -15 -250 -67 -372 -90 -304 -56 -674 -74 -955 -46 -192 20
-341 42 -351 53 -12 13 -28 104 -34 199 -8 111 20 646 39 735 8 36 21 81 29
100 13 32 81 143 110 181 21 28 82 410 81 513 0 81 -3 97 -32 155 -49 100 -39
138 36 127 62 -10 67 6 9 33 -28 14 -80 52 -115 84 -68 64 -109 123 -327 471
-76 121 -151 239 -167 263 -90 132 -102 211 -71 482 12 107 27 283 33 391 12
230 24 279 78 332 78 77 150 82 447 36z m1502 -27 c56 -29 118 -102 132 -156
13 -54 9 -68 -35 -101 -51 -39 -122 -151 -240 -377 -58 -112 -115 -214 -127
-226 -53 -57 -113 -66 -192 -28 -59 27 -100 71 -116 125 -11 36 -7 48 86 277
176 431 201 475 295 503 52 15 149 7 197 -17z m406 -319 c52 -36 92 -113 108
-207 21 -126 -6 -206 -83 -247 -55 -28 -69 -26 -57 10 6 16 9 46 7 68 l-3 38
-41 -75 c-53 -95 -195 -310 -220 -332 -50 -44 -121 -42 -229 7 -105 47 -128
111 -76 214 42 83 215 383 258 448 56 85 118 115 226 109 56 -3 76 -9 110 -33z"/>
<path d="M3785 7863 c-70 -10 -156 -37 -234 -75 -146 -70 -312 -258 -374 -425
-45 -119 -51 -154 -51 -288 0 -105 4 -145 22 -208 77 -270 290 -479 562 -553
100 -27 292 -25 394 4 187 54 371 188 455 333 19 34 19 34 -1 77 -11 23 -24
42 -29 42 -5 0 -15 -13 -23 -28 -74 -143 -240 -275 -414 -328 -129 -40 -310
-31 -442 22 -174 69 -334 245 -393 429 -18 58 -22 92 -21 200 0 115 4 139 28
210 15 44 37 96 49 115 66 110 165 206 277 268 180 100 418 102 619 5 111 -53
242 -187 299 -303 54 -113 77 -225 69 -345 l-6 -91 48 -10 49 -10 6 44 c19
136 -1 302 -50 423 -35 86 -126 221 -196 291 -154 153 -409 233 -643 201z"/>
<path d="M3762 7630 c-142 -38 -262 -124 -345 -250 -141 -213 -117 -516 57
-716 80 -93 237 -173 369 -189 l57 -6 0 35 c0 34 -1 35 -47 41 -126 17 -225
68 -315 163 -109 114 -161 273 -138 419 6 37 13 69 15 71 2 3 21 1 41 -2 l37
-7 -6 -50 -6 -49 33 0 c32 0 33 2 45 54 22 98 102 195 201 244 47 23 67 27
145 27 110 0 160 -20 239 -95 165 -156 147 -420 -39 -562 -64 -48 -117 -62
-215 -55 -137 9 -230 66 -289 178 -28 51 -36 60 -55 55 -11 -3 -24 -6 -28 -6
-14 0 -8 -30 16 -78 32 -63 127 -152 201 -187 55 -27 69 -30 165 -29 119 0
180 18 262 79 85 62 152 188 165 306 4 45 10 59 22 59 9 0 26 3 39 6 21 6 22
4 22 -53 0 -66 -20 -145 -56 -214 -48 -96 -196 -227 -274 -244 -30 -7 -37 -24
-24 -59 9 -24 30 -20 112 21 125 61 232 185 284 329 27 74 36 242 18 323 -13
59 -58 171 -69 171 -3 0 -17 -9 -31 -20 l-25 -19 22 -44 c12 -25 25 -60 28
-80 7 -33 6 -35 -30 -41 -20 -4 -38 -6 -39 -4 -1 2 -15 34 -31 72 -74 178
-201 261 -400 261 -88 0 -107 -3 -157 -27 -81 -38 -123 -72 -174 -144 l-44
-62 -35 11 c-19 6 -35 16 -35 23 0 25 85 137 131 174 192 152 410 158 626 20
21 -13 25 -13 45 8 l23 23 -30 26 c-46 38 -144 82 -221 98 -92 20 -174 18
-262 -5z"/>
<path d="M2950 7454 c0 -11 45 -43 60 -43 10 0 5 8 -13 24 -27 24 -47 32 -47
19z"/>
<path d="M3844 7235 c-27 -13 -57 -38 -67 -54 -23 -40 -21 -49 4 -17 49 63
153 85 218 45 37 -22 54 -20 70 9 9 16 7 18 -20 14 -16 -2 -47 3 -69 12 -55
22 -78 20 -136 -9z"/>
<path d="M3679 6934 c66 -133 216 -184 354 -121 56 25 81 56 35 43 -110 -32
-145 -37 -187 -31 -65 10 -115 38 -173 98 l-50 52 21 -41z"/>
<path d="M3034 6767 c46 -122 109 -226 196 -322 36 -40 50 -50 54 -38 7 18 0
31 -41 76 -57 63 -124 160 -175 254 -27 51 -52 93 -54 93 -2 0 7 -28 20 -63z"/>
<path d="M4892 6738 c-14 -14 -16 -35 -4 -42 5 -3 16 8 26 25 13 22 14 29 4
29 -8 0 -19 -5 -26 -12z"/>
<path d="M5660 6996 c0 -8 94 -37 165 -51 39 -8 80 -17 93 -21 12 -3 22 -2 22
4 0 13 -83 47 -148 61 -52 11 -132 15 -132 7z"/>
<path d="M6230 6795 c0 -8 110 -61 165 -80 153 -52 177 -50 68 8 -74 38 -233
88 -233 72z"/>
<path d="M5707 6536 c-14 -36 -7 -77 18 -101 23 -24 31 -25 132 -25 59 0 113
4 119 8 6 4 15 22 19 40 6 31 5 32 -17 28 -62 -14 -145 -26 -178 -26 -41 0
-62 18 -77 64 -8 25 -10 27 -16 12z"/>
<path d="M6205 4560 c-27 -4 -135 -14 -240 -21 -169 -12 -183 -14 -125 -20
106 -12 404 16 450 42 19 10 -14 10 -85 -1z"/>
<path d="M5930 4419 c-74 -3 -155 -8 -180 -9 l-45 -2 35 -8 c19 -5 87 -14 151
-21 123 -12 294 -2 394 24 l50 13 -79 7 c-86 8 -123 7 -326 -4z"/>
<path d="M5922 4180 c28 -17 207 -50 336 -62 134 -13 281 -2 345 26 30 14 25
14 -85 15 -125 1 -493 18 -568 26 -32 3 -40 2 -28 -5z"/>
<path d="M6320 3705 c0 -27 -3 -60 -6 -72 -5 -17 -2 -23 10 -23 13 0 16 11 16
58 0 31 -5 64 -10 72 -7 11 -10 1 -10 -35z"/>
<path d="M7350 9854 c0 -18 61 -83 119 -127 79 -59 217 -129 332 -168 80 -28
108 -33 194 -33 84 -1 107 3 140 21 46 24 115 95 140 143 l17 33 -37 -36 c-55
-54 -123 -94 -180 -107 -165 -38 -467 74 -692 256 -18 15 -33 23 -33 18z"/>
<path d="M2763 9691 c-124 -46 -229 -152 -247 -251 l-7 -35 25 45 c29 54 127
150 181 177 178 90 389 21 497 -162 28 -48 29 -49 22 -15 -10 53 -32 89 -88
145 -73 73 -150 108 -251 112 -61 3 -92 -1 -132 -16z"/>
<path d="M4137 9620 c-42 -16 -86 -53 -87 -72 0 -6 113 32 204 68 19 7 19 8 0
15 -31 12 -66 9 -117 -11z"/>
<path d="M9267 9515 c-36 -31 -67 -64 -70 -75 -11 -43 19 -29 91 43 l75 76
156 -162 c356 -369 333 -342 325 -384 l-6 -38 63 60 c105 100 108 108 25 80
l-54 -18 -233 236 c-277 281 -264 274 -372 182z"/>
<path d="M9030 9283 c-26 -10 -162 -136 -173 -160 -7 -16 -7 -27 0 -34 7 -7
41 20 107 82 l97 92 33 -34 c18 -19 90 -94 160 -167 125 -128 128 -133 122
-167 -4 -19 -3 -35 1 -35 5 0 42 33 82 74 l74 75 -39 -11 c-95 -24 -79 -32
-230 122 -159 163 -186 181 -234 163z"/>
<path d="M3385 9102 c-112 -146 -195 -221 -310 -281 -161 -83 -349 -81 -500 5
-79 45 -119 81 -200 184 -37 47 -69 87 -71 89 -13 14 20 -69 47 -121 87 -166
288 -288 474 -288 197 1 409 127 544 323 35 51 86 156 79 162 -2 3 -31 -30
-63 -73z"/>
<path d="M8642 9022 c34 -38 179 -189 321 -336 254 -263 258 -268 251 -302 -3
-19 -2 -34 3 -34 4 0 44 36 87 79 l79 80 -36 -5 c-20 -2 -48 -9 -62 -14 -16
-6 -33 -7 -43 -1 -9 5 -123 116 -252 246 -341 343 -354 355 -385 355 -26 0
-24 -3 37 -68z"/>
<path d="M1703 8353 c-68 -54 -140 -130 -149 -155 -3 -10 -9 -18 -13 -18 -13
0 -78 -150 -90 -208 -14 -69 -14 -88 2 -104 7 -7 14 -16 15 -20 1 -5 5 -8 8
-7 4 0 11 -5 15 -13 6 -8 9 0 9 24 0 107 67 269 147 358 26 30 75 73 107 97
51 38 66 44 100 41 27 -2 41 1 41 10 0 6 -4 13 -10 13 -5 1 -19 8 -30 15 -40
28 -90 18 -152 -33z"/>
<path d="M10350 8193 c-8 -2 -61 -23 -116 -45 -77 -30 -104 -46 -113 -64 -15
-34 -14 -59 4 -74 8 -7 15 -9 15 -4 0 4 7 -1 15 -12 14 -18 14 -17 5 9 -8 23
-7 29 8 34 9 3 68 28 131 54 63 27 115 47 116 46 23 -40 178 -437 182 -465 3
-23 8 -40 12 -38 3 2 17 0 30 -5 21 -8 23 -14 18 -51 -7 -54 -33 -88 -87 -114
-55 -27 -112 -35 -170 -24 -36 6 -54 18 -88 55 -39 44 -110 170 -104 188 1 4
-4 7 -11 7 -7 0 -18 20 -25 45 -15 58 -106 245 -133 273 -25 28 -93 29 -152 3
-23 -10 -87 -35 -141 -56 -79 -31 -102 -36 -115 -26 -22 16 -114 61 -118 57
-2 -1 18 -55 44 -119 46 -111 63 -134 69 -92 1 10 11 26 21 35 21 20 332 152
342 146 4 -3 31 -63 61 -135 51 -124 56 -131 82 -131 46 0 38 -49 -22 -142
-28 -43 -50 -80 -50 -83 0 -4 -6 -13 -12 -20 -23 -26 -34 -40 -36 -47 -1 -4
-19 -35 -40 -68 -43 -69 -67 -80 -129 -58 l-42 15 17 -41 c57 -146 109 -260
120 -264 8 -2 10 5 6 25 -6 34 19 83 156 301 82 131 120 176 120 143 0 -17 84
-102 126 -127 107 -63 268 -30 371 76 46 47 65 94 71 174 l5 69 -33 -6 c-37
-8 -60 5 -60 34 0 11 -4 19 -10 19 -5 0 -14 18 -20 41 -6 22 -34 88 -62 147
-27 59 -70 148 -94 199 -52 110 -94 140 -164 116z"/>
<path d="M2267 8149 c8 -15 18 -63 22 -106 5 -43 9 -66 10 -50 0 15 6 26 13
25 7 -2 13 6 15 17 1 11 3 27 4 35 7 48 -2 67 -40 87 l-38 21 14 -29z"/>
<path d="M2442 8130 c0 -19 2 -27 5 -17 2 9 2 25 0 35 -3 9 -5 1 -5 -18z"/>
<path d="M2452 8010 c-2 -27 -5 -31 -12 -20 -8 13 -10 13 -10 -1 0 -9 -9 -28
-20 -42 -11 -14 -23 -39 -26 -56 -4 -17 -11 -34 -15 -37 -5 -3 -9 -11 -9 -19
0 -48 -111 -233 -185 -309 -132 -135 -384 -156 -554 -46 -60 39 -134 121 -147
163 -6 19 -20 40 -64 94 -6 7 -10 19 -10 27 0 8 -6 19 -13 23 -7 4 -23 21 -35
37 -12 16 -22 25 -22 20 0 -5 -5 -2 -11 6 -7 11 -9 -13 -6 -85 5 -109 24 -168
83 -260 111 -174 350 -274 554 -231 199 42 354 185 447 413 40 98 66 228 60
305 -2 36 -4 41 -5 18z"/>
<path d="M2281 7904 c0 -11 3 -14 6 -6 3 7 2 16 -1 19 -3 4 -6 -2 -5 -13z"/>
<path d="M1478 7030 c-2 -6 -102 -68 -223 -139 l-220 -130 -8 -83 c-4 -46 -6
-164 -5 -263 l3 -179 60 -35 c33 -19 118 -71 190 -115 71 -45 133 -82 137 -84
5 -2 8 21 8 51 0 53 -2 57 -42 90 -24 19 -89 61 -145 92 l-103 58 0 138 c0 77
2 139 4 139 10 0 178 -97 226 -131 l55 -39 3 52 c3 49 1 55 -27 79 -17 14 -85
56 -152 93 -66 38 -117 71 -112 75 39 33 356 212 367 208 8 -3 77 -48 153 -99
76 -51 148 -98 159 -104 10 -7 17 -14 14 -16 -3 -3 -50 -31 -105 -63 -55 -32
-130 -78 -167 -102 l-68 -43 0 -250 c0 -152 4 -250 10 -250 9 0 52 24 318 180
l142 83 0 54 0 54 -32 -17 c-18 -9 -94 -52 -170 -95 -75 -44 -139 -79 -142
-79 -3 0 -6 20 -6 44 l0 43 175 89 175 89 0 57 0 57 -176 -90 -175 -91 3 42 3
43 140 84 c200 121 205 125 205 179 0 24 -4 44 -10 44 -5 0 -31 15 -57 34 -27
19 -101 66 -167 105 -65 40 -145 90 -177 111 -31 22 -59 35 -61 30z"/>
<path d="M10508 7031 c-1 -5 -104 -70 -228 -143 l-225 -134 0 -259 0 -259 162
-96 c89 -54 178 -109 198 -124 l36 -28 -3 63 c-3 62 -4 64 -50 99 -26 19 -90
59 -142 89 l-96 54 0 139 0 139 79 -41 c44 -23 108 -61 143 -86 l63 -44 3 52
c3 49 1 55 -29 78 -17 15 -85 57 -151 94 -66 38 -116 72 -111 76 12 11 328
199 346 206 9 3 66 -28 149 -84 73 -49 148 -97 166 -106 17 -9 32 -20 32 -24
0 -4 -39 -29 -86 -55 -47 -26 -123 -72 -170 -102 l-84 -55 0 -250 c0 -144 4
-250 9 -250 11 0 110 56 261 147 63 39 134 80 158 92 42 21 42 22 42 76 0 30
-2 55 -4 55 -2 0 -79 -43 -170 -95 -91 -52 -168 -95 -171 -95 -3 0 -5 20 -5
44 l0 44 153 78 c83 43 161 83 172 89 16 8 21 22 23 68 l3 58 -175 -91 -176
-92 0 45 c0 32 5 47 16 51 37 14 279 163 306 188 22 20 28 35 28 67 0 23 -5
41 -11 41 -6 0 -38 20 -72 43 -34 24 -114 75 -177 112 -63 38 -136 83 -162
102 -25 18 -48 29 -50 24z"/>
<path d="M10336 5490 c-23 -5 -46 -17 -57 -31 -29 -38 -87 -159 -101 -212 -12
-45 -15 -48 -40 -45 -25 4 -28 1 -34 -30 -4 -19 -4 -61 0 -93 19 -183 148
-283 308 -239 87 24 126 85 182 285 47 163 68 212 99 226 60 27 111 -45 105
-148 -3 -49 -2 -52 18 -47 29 8 36 -16 23 -79 -14 -64 -73 -197 -96 -214 -9
-7 -41 -13 -71 -13 -33 0 -51 -4 -47 -10 7 -12 151 -110 160 -110 4 0 3 9 0
20 -4 14 3 36 24 68 44 68 86 167 105 245 21 82 31 195 22 231 -6 25 -7 26
-31 10 -24 -15 -24 -15 -52 42 -36 72 -65 94 -134 100 -46 5 -59 2 -89 -18
-19 -13 -47 -46 -62 -73 -23 -42 -73 -182 -83 -235 -12 -59 -40 -130 -63 -159
-55 -65 -166 -50 -210 28 -27 48 -28 91 -3 113 18 16 20 16 24 0 3 -9 5 2 6
25 2 66 21 143 51 208 33 69 87 135 113 139 10 1 19 6 20 11 3 11 -40 13 -87
5z"/>
<path d="M1901 5434 c0 -11 3 -14 6 -6 3 7 2 16 -1 19 -3 4 -6 -2 -5 -13z"/>
<path d="M1685 5379 c-471 -98 -472 -98 -519 -74 -16 9 -31 14 -33 11 -2 -2
19 -116 47 -252 28 -137 58 -284 67 -327 15 -73 15 -78 -2 -97 -10 -11 -16
-23 -12 -26 8 -9 217 37 217 47 0 5 -9 9 -20 9 -10 0 -23 7 -28 17 -5 9 -25
21 -43 27 -33 11 -34 13 -51 101 -10 50 -23 115 -29 145 -33 166 -33 174 6
164 22 -6 23 -4 15 32 -5 21 -8 39 -7 41 4 3 192 41 195 39 1 -2 17 -73 34
-159 31 -153 32 -156 13 -177 -10 -11 -16 -22 -14 -24 7 -6 209 37 209 45 0 4
-9 10 -19 14 -11 3 -23 14 -26 24 -3 10 -11 18 -18 18 -49 -1 -57 3 -57 32 0
16 -4 40 -9 53 -5 13 -12 47 -16 76 -7 52 -7 52 20 52 26 0 26 2 20 39 l-6 38
86 17 c48 10 88 16 90 14 5 -6 95 -453 95 -472 0 -11 -7 -28 -17 -38 -9 -10
-14 -20 -11 -23 7 -7 218 36 218 45 0 4 -11 12 -25 18 -14 6 -25 16 -25 22 0
5 -3 9 -7 9 -53 -8 -61 8 -98 192 -54 275 -63 309 -79 335 -9 13 -17 24 -19
23 -1 0 -65 -14 -142 -30z"/>
<path d="M1912 5380 c0 -14 2 -19 5 -12 2 6 2 18 0 25 -3 6 -5 1 -5 -13z"/>
<path d="M1921 5334 c0 -11 3 -14 6 -6 3 7 2 16 -1 19 -3 4 -6 -2 -5 -13z"/>
<path d="M1932 5280 c0 -14 2 -19 5 -12 2 6 2 18 0 25 -3 6 -5 1 -5 -13z"/>
<path d="M1941 5234 c0 -11 3 -14 6 -6 3 7 2 16 -1 19 -3 4 -6 -2 -5 -13z"/>
<path d="M10111 5234 c0 -11 3 -14 6 -6 3 7 2 16 -1 19 -3 4 -6 -2 -5 -13z"/>
<path d="M1951 5194 c0 -11 3 -14 6 -6 3 7 2 16 -1 19 -3 4 -6 -2 -5 -13z"/>
<path d="M1632 5160 c0 -14 2 -19 5 -12 2 6 2 18 0 25 -3 6 -5 1 -5 -13z"/>
<path d="M1961 5134 c0 -11 3 -14 6 -6 3 7 2 16 -1 19 -3 4 -6 -2 -5 -13z"/>
<path d="M1641 5114 c0 -11 3 -14 6 -6 3 7 2 16 -1 19 -3 4 -6 -2 -5 -13z"/>
<path d="M1971 5094 c0 -11 3 -14 6 -6 3 7 2 16 -1 19 -3 4 -6 -2 -5 -13z"/>
<path d="M1652 5060 c0 -14 2 -19 5 -12 2 6 2 18 0 25 -3 6 -5 1 -5 -13z"/>
<path d="M1982 5040 c0 -14 2 -19 5 -12 2 6 2 18 0 25 -3 6 -5 1 -5 -13z"/>
<path d="M1661 5014 c0 -11 3 -14 6 -6 3 7 2 16 -1 19 -3 4 -6 -2 -5 -13z"/>
<path d="M1991 4994 c0 -11 3 -14 6 -6 3 7 2 16 -1 19 -3 4 -6 -2 -5 -13z"/>
<path d="M2011 4894 c0 -11 3 -14 6 -6 3 7 2 16 -1 19 -3 4 -6 -2 -5 -13z"/>
<path d="M9997 4430 c-14 -20 -107 -56 -107 -42 -1 12 -29 -42 -30 -56 0 -10
4 -10 20 0 15 9 25 10 38 2 9 -6 72 -89 138 -185 84 -121 128 -175 143 -177
37 -6 25 42 -31 131 -29 45 -58 97 -65 115 -11 32 -10 33 15 30 15 -1 34 -7
42 -13 8 -5 4 5 -9 23 -12 17 -19 32 -14 32 4 -1 103 -49 218 -108 190 -97
210 -110 213 -134 2 -16 7 -28 11 -28 4 0 27 45 53 99 l46 99 -45 -19 c-25
-10 -51 -19 -60 -19 -8 0 -92 40 -186 88 -95 48 -188 94 -207 102 -19 8 -56
26 -81 41 -69 40 -85 43 -102 19z"/>
<path d="M1939 4375 c-26 -14 -59 -69 -59 -99 0 -15 47 -46 70 -46 5 0 10 13
10 30 0 37 38 65 75 56 82 -21 182 -204 186 -342 0 -16 3 -22 6 -14 4 8 15 21
26 29 17 12 19 21 13 70 -16 137 -91 271 -178 317 -34 18 -115 17 -149 -1z"/>
<path d="M1785 4239 c3 -47 20 -108 58 -215 30 -82 57 -160 60 -174 4 -24 4
-24 6 -2 0 13 5 21 10 17 5 -3 13 0 16 6 14 22 6 81 -25 186 -18 59 -34 121
-36 138 -7 51 -14 63 -44 74 -22 7 -30 7 -31 -2 -1 -7 -5 -1 -10 13 -6 17 -7
5 -4 -41z"/>
<path d="M1486 4134 c33 -293 202 -534 375 -534 115 0 218 94 219 200 l0 34
-62 -66 c-35 -36 -73 -71 -85 -77 -30 -15 -117 -14 -156 3 -105 45 -227 276
-227 431 0 32 -4 44 -17 48 -10 2 -26 8 -36 12 -16 7 -17 2 -11 -51z"/>
<path d="M1578 4168 c-14 -9 -13 -10 20 -13 12 -1 22 3 22 10 0 13 -23 16 -42
3z"/>
<path d="M1621 4114 c0 -11 3 -14 6 -6 3 7 2 16 -1 19 -3 4 -6 -2 -5 -13z"/>
<path d="M2343 4015 c0 -27 2 -38 4 -22 2 15 2 37 0 50 -2 12 -4 0 -4 -28z"/>
<path d="M2209 3888 c-26 -29 -27 -33 -12 -40 26 -10 193 -9 193 1 0 5 -7 11
-15 15 -8 3 -15 12 -15 20 0 22 -32 36 -80 36 -34 0 -47 -6 -71 -32z"/>
<path d="M10150 3849 c-47 -4 -119 -7 -161 -8 -87 -1 -115 -15 -104 -51 l7
-23 237 7 c282 8 332 13 324 32 -3 8 -9 12 -13 9 -5 -3 -11 -1 -14 4 -10 15
-110 41 -153 39 -21 0 -76 -4 -123 -9z"/>
<path d="M9604 3748 c-29 -6 -44 -16 -52 -32 -14 -31 -5 -39 23 -20 21 14 40
6 332 -139 169 -85 314 -161 320 -168 6 -8 13 -23 15 -34 3 -15 10 -8 27 30
13 28 32 66 42 86 l18 37 -39 -19 c-21 -10 -44 -19 -51 -19 -7 0 -134 62 -283
138 -149 76 -280 141 -291 143 -11 3 -38 1 -61 -3z"/>
<path d="M2457 3376 c-47 -17 -99 -57 -133 -101 -27 -36 -49 -108 -35 -113 4
-1 6 -15 4 -30 -3 -21 -1 -19 10 9 59 157 207 223 354 159 86 -37 177 -143
209 -245 l13 -40 -3 61 c-2 39 -11 79 -26 110 -31 63 -111 143 -175 174 -60
29 -162 37 -218 16z"/>
<path d="M9255 3176 c-103 -49 -186 -153 -170 -215 7 -25 7 -25 27 17 28 58
107 127 170 148 119 39 261 -23 321 -140 14 -28 15 -29 21 -8 10 31 -24 101
-69 141 -93 81 -204 102 -300 57z"/>
<path d="M2134 3005 c15 -71 78 -175 149 -249 73 -74 135 -113 252 -157 30
-11 60 -30 66 -41 13 -25 17 -21 34 34 l13 45 -24 -5 c-29 -5 -128 29 -204 71
-88 49 -198 171 -273 300 l-19 32 6 -30z"/>
<path d="M2896 2924 c-14 -16 -21 -31 -15 -33 21 -7 179 11 179 20 0 6 -5 7
-11 4 -5 -4 -19 1 -29 10 -10 9 -36 19 -58 22 -34 5 -43 1 -66 -23z"/>
<path d="M9791 2884 c0 -11 3 -14 6 -6 3 7 2 16 -1 19 -3 4 -6 -2 -5 -13z"/>
<path d="M9781 2824 c0 -11 3 -14 6 -6 3 7 2 16 -1 19 -3 4 -6 -2 -5 -13z"/>
<path d="M9710 2708 c-115 -142 -202 -203 -325 -228 -127 -26 -235 10 -342
115 -94 93 -113 101 -77 35 58 -106 194 -196 312 -207 177 -16 369 102 466
286 21 40 36 74 34 76 -1 2 -32 -33 -68 -77z"/>
<path d="M8921 2744 c0 -11 3 -14 6 -6 3 7 2 16 -1 19 -3 4 -6 -2 -5 -13z"/>
<path d="M8931 2704 c0 -11 3 -14 6 -6 3 7 2 16 -1 19 -3 4 -6 -2 -5 -13z"/>
<path d="M3408 2361 c-64 -37 -91 -62 -79 -74 9 -9 120 45 170 82 l22 17 -33
1 c-21 2 -51 -8 -80 -26z"/>
<path d="M8261 2349 c-61 -31 -108 -78 -116 -117 -3 -16 5 -12 34 17 61 61
123 86 211 86 86 -1 120 -15 181 -76 46 -46 52 -29 8 30 -66 92 -202 118 -318
60z"/>
<path d="M3119 2190 c-20 -11 -46 -35 -58 -55 l-21 -35 -37 16 c-46 20 -103
31 -88 17 6 -6 39 -31 76 -56 l65 -46 0 40 c-1 40 1 42 63 79 l63 39 52 -37
c154 -113 216 -153 216 -138 0 8 -45 48 -101 88 -171 124 -166 122 -230 88z"/>
<path d="M4458 1978 c4 -4 70 -30 147 -58 77 -27 153 -60 169 -72 l30 -21 -23
32 c-26 36 -62 56 -182 100 -77 28 -162 40 -141 19z"/>
<path d="M7172 1856 c-67 -19 -122 -42 -135 -54 l-21 -21 50 13 c221 61 252
67 295 64 45 -3 47 -2 32 15 -24 26 -92 21 -221 -17z"/>
<path d="M8729 1843 c-13 -16 -12 -17 4 -4 16 13 21 21 13 21 -2 0 -10 -8 -17
-17z"/>
<path d="M8622 1769 c-95 -62 -170 -90 -262 -96 -86 -6 -166 12 -237 53 -24
14 -43 22 -43 18 0 -4 -15 5 -32 22 -23 20 -21 16 7 -14 22 -24 69 -57 105
-75 61 -30 71 -32 170 -31 120 0 177 17 276 84 80 53 97 67 93 78 -2 5 -37
-13 -77 -39z"/>
<path d="M3470 1745 c0 -2 27 -23 61 -46 53 -36 59 -38 44 -15 -24 36 -105 84
-105 61z"/>
<path d="M5538 1716 c-15 -11 20 -16 218 -33 143 -13 240 -26 250 -33 12 -10
13 -10 9 1 -12 32 -54 42 -239 60 -227 22 -217 22 -238 5z"/>
<path d="M4367 1665 c85 -37 304 -108 357 -115 79 -12 144 3 187 42 19 16 27
26 19 20 -8 -5 -46 -17 -84 -27 -87 -21 -150 -12 -321 50 -67 25 -138 45 -156
45 l-34 -1 32 -14z"/>
<path d="M7545 1643 c-22 -19 -31 -31 -20 -25 19 9 74 63 64 62 -2 -1 -22 -17
-44 -37z"/>
<path d="M7191 1516 c-25 -6 -46 -17 -49 -23 -5 -17 6 -16 58 2 23 8 50 15 59
15 9 0 47 -25 84 -56 84 -70 88 -65 5 8 -72 62 -95 71 -157 54z"/>
<path d="M4135 1400 c66 -24 87 -24 50 0 -17 11 -46 20 -65 19 -35 -1 -35 -1
15 -19z"/>
<path d="M5510 1400 c-12 -8 -9 -10 15 -11 17 0 85 -6 153 -13 120 -12 141 -9
72 12 -52 16 -222 24 -240 12z"/>
<path d="M7583 1282 c-66 -25 -51 -31 25 -11 89 25 93 27 52 27 -19 1 -54 -7
-77 -16z"/>
<path d="M7067 1135 c-38 -13 -58 -25 -42 -25 16 0 90 24 100 32 14 12 -14 9
-58 -7z"/>
<path d="M5335 1070 c28 -5 163 -18 300 -30 138 -11 268 -23 290 -26 29 -3 36
-2 24 5 -9 6 -67 15 -130 21 -335 32 -580 48 -484 30z"/>
</g>
</svg>
